<svg xmlns="http://www.w3.org/2000/svg" xmlns:xlink="http://www.w3.org/1999/xlink" width="500" zoomAndPan="magnify" viewBox="0 0 375 374.999991" height="500" preserveAspectRatio="xMidYMid meet" version="1.0"><defs><g/><clipPath id="3cc1005202"><path d="M 277.519531 160.433594 L 324.019531 160.433594 L 324.019531 214 L 277.519531 214 Z M 277.519531 160.433594 " clip-rule="nonzero"/></clipPath></defs><g fill="#ffffff" fill-opacity="1"><g transform="translate(101.061099, 207.410142)"><g><path d="M 21.9375 -21.996094 L 21.9375 -15.769531 L 30.898438 -15.769531 L 30.898438 -11.230469 C 28.863281 -8.730469 25.777344 -7.332031 21.820312 -7.332031 C 14.375 -7.332031 9.949219 -12.917969 9.949219 -20.308594 C 9.949219 -27.757812 14.375 -33.34375 21.820312 -33.34375 C 26.304688 -33.34375 29.679688 -31.308594 31.65625 -28.046875 L 38.699219 -31.539062 C 35.324219 -37.359375 29.328125 -41.082031 21.820312 -41.082031 C 10.125 -41.082031 2.035156 -32.007812 2.035156 -20.308594 C 2.035156 -8.613281 10.125 0.464844 21.820312 0.464844 C 29.328125 0.464844 35.324219 -3.199219 38.699219 -9.019531 L 38.699219 -21.996094 Z M 21.9375 -21.996094 "/></g></g></g><g fill="#ffffff" fill-opacity="1"><g transform="translate(142.662339, 207.410142)"><g><path d="M 27.234375 -11.230469 C 27.410156 -12.105469 27.46875 -13.035156 27.46875 -14.023438 C 27.46875 -22.113281 22.519531 -28.457031 14.488281 -28.457031 C 6.402344 -28.457031 0.582031 -22.113281 0.582031 -14.023438 C 0.582031 -5.9375 6.691406 0.464844 14.78125 0.464844 C 19.902344 0.464844 24.035156 -2.09375 26.359375 -5.992188 L 19.960938 -9.136719 C 18.855469 -7.566406 17.050781 -6.632812 14.78125 -6.632812 C 11.582031 -6.632812 9.425781 -8.496094 8.554688 -11.230469 Z M 14.488281 -21.414062 C 17.75 -21.414062 19.496094 -19.4375 20.132812 -16.644531 L 8.496094 -16.644531 C 9.195312 -19.4375 11.230469 -21.414062 14.488281 -21.414062 Z M 14.488281 -21.414062 "/></g></g></g><g fill="#ffffff" fill-opacity="1"><g transform="translate(171.870474, 207.410142)"><g><path d="M 14.082031 -17.167969 C 9.660156 -18.503906 8.84375 -19.203125 8.785156 -20.25 C 8.730469 -21.007812 9.484375 -22.460938 12.453125 -22.230469 C 14.605469 -22.054688 15.539062 -20.714844 15.828125 -19.785156 L 21.765625 -21.472656 C 21.355469 -24.035156 18.15625 -28.398438 11.40625 -28.398438 C 4.132812 -28.398438 0.988281 -24.324219 0.816406 -20.425781 C 0.640625 -15.828125 3.316406 -13.734375 9.425781 -11.582031 C 13.324219 -10.242188 14.664062 -10.066406 14.722656 -8.496094 C 14.78125 -6.984375 12.453125 -6.460938 10.359375 -6.574219 C 8.378906 -6.691406 5.9375 -7.855469 5.355469 -9.3125 L -0.289062 -6.285156 C 0.640625 -2.851562 5.820312 0.40625 11.695312 0.40625 C 18.15625 0.40625 22.695312 -3.027344 22.871094 -8.089844 C 23.042969 -12.335938 20.660156 -15.128906 14.082031 -17.167969 Z M 14.082031 -17.167969 "/></g></g></g><g fill="#ffffff" fill-opacity="1"><g transform="translate(195.958466, 207.410142)"><g><path d="M 18.214844 -8.261719 C 17.457031 -7.566406 16.003906 -7.097656 14.957031 -7.097656 C 12.511719 -7.097656 11.871094 -8.613281 11.871094 -11.113281 L 11.871094 -20.601562 L 18.390625 -20.601562 L 18.390625 -28.046875 L 11.871094 -28.046875 L 11.871094 -36.078125 L 4.132812 -34.332031 L 4.132812 -28.046875 L 0.289062 -28.046875 L 0.289062 -20.601562 L 4.132812 -20.601562 L 4.132812 -8.613281 C 4.132812 -2.792969 7.449219 0.289062 13.382812 0.289062 C 16.703125 0.289062 19.320312 -0.929688 20.773438 -2.328125 Z M 18.214844 -8.261719 "/></g></g></g><g fill="#ffffff" fill-opacity="1"><g transform="translate(217.893665, 207.410142)"><g><path d="M 14.140625 -28.457031 C 7.15625 -28.457031 3.027344 -23.859375 2.503906 -20.191406 L 8.960938 -18.796875 C 9.425781 -20.949219 11.230469 -22.054688 13.617188 -22.113281 C 16.351562 -22.230469 18.15625 -20.484375 17.75 -18.796875 C 17.398438 -17.226562 15.421875 -17.226562 10.707031 -16.175781 C 4.773438 -14.898438 0.582031 -12.746094 0.582031 -6.632812 C 0.816406 -2.386719 3.839844 0.464844 9.3125 0.464844 C 14.082031 0.464844 16.875 -1.570312 17.921875 -2.617188 L 17.921875 0 L 25.605469 0 L 25.605469 -17.515625 C 25.605469 -25.664062 20.25 -28.457031 14.140625 -28.457031 Z M 17.921875 -11.464844 C 17.691406 -8.378906 15.539062 -5.992188 12.511719 -5.527344 C 10.765625 -5.238281 9.019531 -5.585938 8.554688 -6.867188 C 8.03125 -8.261719 8.84375 -10.125 11.695312 -10.882812 C 15.363281 -11.8125 17.921875 -12.335938 17.921875 -12.335938 Z M 17.921875 -11.464844 "/></g></g></g><g fill="#ffffff" fill-opacity="1"><g transform="translate(246.403608, 207.410142)"><g><path d="M 14.78125 -6.632812 C 10.589844 -6.632812 8.207031 -9.835938 8.207031 -14.023438 C 8.207031 -18.214844 10.589844 -21.414062 14.78125 -21.414062 C 17.109375 -21.414062 18.855469 -20.425781 19.960938 -18.914062 L 26.359375 -21.996094 C 24.035156 -25.894531 19.902344 -28.457031 14.78125 -28.457031 C 6.691406 -28.457031 0.582031 -22.113281 0.582031 -14.023438 C 0.582031 -5.9375 6.691406 0.464844 14.78125 0.464844 C 19.902344 0.464844 24.035156 -2.09375 26.359375 -5.992188 L 19.960938 -9.136719 C 18.855469 -7.566406 17.109375 -6.632812 14.78125 -6.632812 Z M 14.78125 -6.632812 "/></g></g></g><g clip-path="url(#3cc1005202)"><path fill="#32a5e8" d="M 277.710938 174.339844 L 277.710938 200.371094 C 277.710938 200.542969 277.800781 200.707031 277.953125 200.792969 L 300.617188 213.828125 C 300.769531 213.914062 300.953125 213.914062 301.105469 213.828125 L 323.773438 200.792969 C 323.929688 200.707031 324.019531 200.542969 324.019531 200.371094 L 324.019531 174.339844 C 324.019531 174.167969 323.929688 174.003906 323.777344 173.917969 L 301.109375 160.882812 C 301.03125 160.839844 300.949219 160.816406 300.867188 160.816406 C 300.785156 160.816406 300.699219 160.835938 300.625 160.882812 L 277.960938 173.917969 C 277.804688 174.003906 277.710938 174.164062 277.710938 174.339844 Z M 323.042969 199.527344 L 301.335938 187.082031 L 301.335938 162.136719 L 323.042969 174.621094 Z M 300.359375 162.15625 L 300.359375 187.101562 L 278.6875 199.53125 L 278.6875 174.625 Z M 300.359375 162.15625 " fill-opacity="1" fill-rule="nonzero"/></g></svg>